M48
; DRILL file {KiCad (5.1.5)-3} date 29.06.2020 12:52:38
; FORMAT={-:-/ absolute / inch / decimal}
; #@! TF.CreationDate,2020-06-29T12:52:38+02:00
; #@! TF.GenerationSoftware,Kicad,Pcbnew,(5.1.5)-3
FMAT,2
INCH
T1C0.0157
T2C0.0315
T3C0.0350
T4C0.0354
T5C0.0394
T6C0.0433
T7C0.0791
T8C0.1614
T9C0.1693
%
G90
G05
T1
X2.8506Y-3.8988
X2.8656Y-2.3888
X2.9506Y-1.3988
X3.0256Y-3.0738
X3.0756Y-3.6238
X3.0756Y-3.9188
X3.0756Y-4.1238
X3.1456Y-2.1488
X3.1556Y-3.2088
X3.2256Y-1.1588
X3.2356Y-1.7388
X3.2756Y-1.8988
X3.2756Y-2.4988
X3.3006Y-2.1488
X3.3006Y-2.9488
X3.3256Y-1.7738
X3.3456Y-2.6288
X3.3656Y-3.9088
X3.4256Y-4.0488
X3.4506Y-3.6488
X3.4756Y-3.3888
X3.5656Y-3.3988
X3.6006Y-2.4238
X3.6256Y-4.2488
X3.6556Y-1.4688
X3.6756Y-1.7088
X3.6856Y-3.5588
X3.7006Y-2.2988
X3.7156Y-2.7388
X3.7256Y-2.9488
X3.7256Y-4.7088
X3.7356Y-3.3588
X3.7556Y-1.3688
X3.7748Y-4.4346
X3.7748Y-4.5764
X3.7756Y-2.5738
X3.7756Y-2.8488
X3.7956Y-3.2588
X3.8006Y-3.0738
X3.8156Y-3.3688
X3.8693Y-4.2693
X3.9402Y-2.5961
X3.9402Y-2.9898
X3.9402Y-3.3047
X4.0006Y-1.2488
X4.0006Y-4.5238
X4.0356Y-4.2688
X4.0656Y-2.8288
X4.0819Y-4.7417
X4.1006Y-2.7238
X4.1256Y-2.0988
X4.1256Y-2.2738
X4.1256Y-2.3688
X4.1256Y-2.5288
X4.1506Y-2.9488
X4.1856Y-1.2788
X4.2056Y-1.4688
X4.2157Y-4.1039
X4.2456Y-3.3888
X4.2472Y-4.3008
X4.2551Y-4.4346
X4.263Y-4.5764
X4.3156Y-4.7088
X4.3256Y-2.9288
X4.3256Y-4.7488
X4.3575Y-4.1906
X4.4283Y-3.5528
X4.4656Y-1.5288
X4.4956Y-1.8488
X4.5156Y-2.2188
X4.5228Y-4.1433
X4.5656Y-2.5288
X4.6006Y-0.9988
X4.6006Y-2.5988
X4.6256Y-1.6988
X4.6756Y-2.4088
X4.6756Y-4.2488
X4.7039Y-4.3087
X4.827Y-3.8988
X4.842Y-2.3888
X4.927Y-1.3988
X5.002Y-3.0738
X5.052Y-3.6238
X5.052Y-3.9188
X5.052Y-4.1238
X5.122Y-2.1488
X5.132Y-3.2088
X5.202Y-1.1588
X5.212Y-1.7388
X5.252Y-1.8988
X5.252Y-2.4988
X5.277Y-2.1488
X5.277Y-2.9488
X5.302Y-1.7738
X5.322Y-2.6288
X5.342Y-3.9088
X5.402Y-4.0488
X5.427Y-3.6488
X5.452Y-3.3888
X5.542Y-3.3988
X5.577Y-2.4238
X5.602Y-4.2488
X5.632Y-1.4688
X5.652Y-1.7088
X5.662Y-3.5588
X5.677Y-2.2988
X5.692Y-2.7388
X5.702Y-2.9488
X5.702Y-4.7088
X5.712Y-3.3588
X5.732Y-1.3688
X5.7512Y-4.4346
X5.7512Y-4.5764
X5.752Y-2.5738
X5.752Y-2.8488
X5.772Y-3.2588
X5.777Y-3.0738
X5.792Y-3.3688
X5.8457Y-4.2693
X5.9165Y-2.5961
X5.9165Y-2.9898
X5.9165Y-3.3047
X5.977Y-1.2488
X5.977Y-4.5238
X6.012Y-4.2688
X6.042Y-2.8288
X6.0583Y-4.7417
X6.077Y-2.7238
X6.102Y-2.0988
X6.102Y-2.2738
X6.102Y-2.3688
X6.102Y-2.5288
X6.127Y-2.9488
X6.162Y-1.2788
X6.182Y-1.4688
X6.1921Y-4.1039
X6.222Y-3.3888
X6.2236Y-4.3008
X6.2315Y-4.4346
X6.2394Y-4.5764
X6.292Y-4.7088
X6.302Y-2.9288
X6.302Y-4.7488
X6.3339Y-4.1906
X6.4047Y-3.5528
X6.442Y-1.5288
X6.472Y-1.8488
X6.492Y-2.2188
X6.4992Y-4.1433
X6.542Y-2.5288
X6.577Y-0.9988
X6.577Y-2.5988
X6.602Y-1.6988
X6.652Y-2.4088
X6.652Y-4.2488
X6.6803Y-4.3087
T2
X3.8614Y-3.5559
X3.8614Y-3.8559
X3.9614Y-3.5559
X3.9614Y-3.8559
X4.0614Y-3.5559
X4.0614Y-3.8559
X4.1614Y-3.5559
X4.1614Y-3.8559
X3.8539Y-4.5013
X4.1539Y-4.5013
X4.2756Y-2.3988
X4.5756Y-2.3988
X3.1256Y-2.2488
X3.4256Y-2.2488
X6.0545Y-4.0879
X6.0545Y-4.1863
X5.642Y-4.1688
X5.942Y-4.1688
X6.472Y-3.8779
X6.472Y-3.9763
X4.6506Y-1.9488
X4.6506Y-2.2488
X3.6656Y-4.1688
X3.9656Y-4.1688
X3.7756Y-1.5488
X3.7756Y-1.8488
X3.8756Y-1.5488
X3.8756Y-1.8488
X3.9756Y-1.5488
X3.9756Y-1.8488
X4.0756Y-1.5488
X4.0756Y-1.8488
X5.752Y-1.5488
X5.752Y-1.8488
X5.852Y-1.5488
X5.852Y-1.8488
X5.952Y-1.5488
X5.952Y-1.8488
X6.052Y-1.5488
X6.052Y-1.8488
X6.6567Y-3.6472
X6.6567Y-3.9472
X3.4156Y-1.5888
X3.6124Y-1.5888
X6.202Y-1.9488
X6.502Y-1.9488
X5.8378Y-3.5559
X5.8378Y-3.8559
X5.9378Y-3.5559
X5.9378Y-3.8559
X6.0378Y-3.5559
X6.0378Y-3.8559
X6.1378Y-3.5559
X6.1378Y-3.8559
X6.102Y-3.177
X6.102Y-3.3738
X5.5031Y-3.1866
X5.6016Y-3.1866
X4.6803Y-3.6472
X4.6803Y-3.9472
X2.8772Y-3.7988
X2.9756Y-3.7988
X5.102Y-2.2488
X5.402Y-2.2488
X4.1256Y-3.177
X4.1256Y-3.3738
X6.352Y-3.0488
X6.352Y-3.3488
X5.232Y-3.9888
X5.232Y-4.0872
X5.392Y-1.5888
X5.5888Y-1.5888
X5.0995Y-2.0488
X5.3995Y-2.0488
X3.1772Y-3.7988
X3.2756Y-3.7988
X5.1535Y-3.7988
X5.252Y-3.7988
X3.6356Y-1.952
X3.6356Y-2.1488
X4.2551Y-4.1906
X4.452Y-4.1906
X3.4256Y-3.7988
X3.524Y-3.7988
X6.627Y-1.9488
X6.627Y-2.2488
X6.3102Y-1.2181
X6.6102Y-1.2181
X3.9756Y-2.0988
X3.9756Y-2.3988
X4.2287Y-1.7488
X4.4256Y-1.7488
X3.8256Y-2.0988
X3.8256Y-2.3988
X2.9356Y-3.9888
X2.9356Y-4.0872
X4.3256Y-2.0988
X4.5224Y-2.0988
X5.8307Y-4.3701
X6.1307Y-4.3701
X4.4956Y-3.8779
X4.4956Y-3.9763
X3.2556Y-3.9888
X3.2556Y-4.0872
X5.952Y-2.0988
X5.952Y-2.3988
X5.402Y-3.7988
X5.5004Y-3.7988
X4.3756Y-3.0488
X4.3756Y-3.3488
X4.6006Y-1.4988
X4.6006Y-1.7988
X4.3339Y-1.2181
X4.6339Y-1.2181
X3.1231Y-2.0488
X3.4231Y-2.0488
X3.8543Y-4.3701
X4.1543Y-4.3701
X5.2535Y-3.1988
X5.352Y-3.1988
X5.8303Y-4.6388
X6.1303Y-4.6388
X4.912Y-3.9888
X4.912Y-4.0872
X6.2315Y-4.1906
X6.4283Y-4.1906
X4.3756Y-2.5488
X4.3756Y-2.8488
X5.8303Y-4.5013
X6.1303Y-4.5013
X6.577Y-1.4988
X6.577Y-1.7988
X5.612Y-1.952
X5.612Y-2.1488
X6.252Y-2.3988
X6.552Y-2.3988
X5.802Y-2.0988
X5.802Y-2.3988
X4.2256Y-1.9488
X4.5256Y-1.9488
X3.8539Y-4.6388
X4.1539Y-4.6388
X3.2772Y-3.1988
X3.3756Y-3.1988
X4.8535Y-3.7988
X4.952Y-3.7988
X4.0781Y-4.0879
X4.0781Y-4.1863
X6.302Y-2.0988
X6.4988Y-2.0988
X3.5268Y-3.1866
X3.6252Y-3.1866
X6.352Y-2.5488
X6.352Y-2.8488
X6.2051Y-1.7488
X6.402Y-1.7488
T3
X5.1Y-1.3795
X5.2Y-1.3795
X3.1236Y-1.3795
X3.2236Y-1.3795
T4
X2.9081Y-2.0488
X3.0081Y-2.0488
X4.8845Y-2.2488
X4.9845Y-2.2488
X6.6409Y-4.0669
X6.6409Y-4.1669
X2.9081Y-2.2488
X3.0081Y-2.2488
X4.8845Y-2.0488
X4.9845Y-2.0488
X4.6646Y-4.0669
X4.6646Y-4.1669
T5
X5.7197Y-0.9622
X6.0197Y-1.0622
X6.2197Y-0.9622
X4.5256Y-2.8441
X4.5256Y-3.3441
X4.6256Y-3.0441
X3.7433Y-0.9622
X4.0433Y-1.0622
X4.2433Y-0.9622
X4.2856Y-3.5588
X4.2856Y-3.6588
X4.2856Y-3.8588
X4.2856Y-4.0588
X6.502Y-2.8441
X6.502Y-3.3441
X6.602Y-3.0441
X6.262Y-3.5588
X6.262Y-3.6588
X6.262Y-3.8588
X6.262Y-4.0588
T6
X4.952Y-3.1988
X4.952Y-3.2988
X4.952Y-3.3988
X5.502Y-2.6988
X5.502Y-2.7988
X5.502Y-2.8988
X3.5256Y-2.6988
X3.5256Y-2.7988
X3.5256Y-2.8988
X5.252Y-3.4988
X5.352Y-3.4988
X5.452Y-3.4988
X2.9756Y-3.1988
X2.9756Y-3.2988
X2.9756Y-3.3988
X4.974Y-2.5472
X4.974Y-2.7441
X4.974Y-2.9409
X2.9976Y-2.5472
X2.9976Y-2.7441
X2.9976Y-2.9409
X3.2756Y-3.4988
X3.3756Y-3.4988
X3.4756Y-3.4988
T7
X5.0Y-1.1795
X5.4Y-1.1795
X3.0236Y-1.1795
X3.4236Y-1.1795
T8
X3.0307Y-4.5449
X5.0071Y-4.5449
T9
X5.502Y-4.4988
X6.4845Y-4.4988
X3.5256Y-4.4988
X3.0156Y-1.7102
X4.5081Y-4.4988
X4.992Y-1.7102
T0
M30
