%TF.GenerationSoftware,KiCad,Pcbnew,(5.1.5)-3*%
%TF.CreationDate,2020-06-29T12:52:57+02:00*%
%TF.ProjectId,HCPL Board,4843504c-2042-46f6-9172-642e6b696361,rev?*%
%TF.SameCoordinates,Original*%
%TF.FileFunction,Legend,Bot*%
%TF.FilePolarity,Positive*%
%FSLAX46Y46*%
G04 Gerber Fmt 4.6, Leading zero omitted, Abs format (unit mm)*
G04 Created by KiCad (PCBNEW (5.1.5)-3) date 2020-06-29 12:52:57*
%MOMM*%
%LPD*%
G04 APERTURE LIST*
%ADD10C,0.200000*%
%ADD11C,0.120000*%
G04 APERTURE END LIST*
D10*
X169932380Y-80420952D02*
X170646666Y-80420952D01*
X170789523Y-80373333D01*
X170884761Y-80278095D01*
X170932380Y-80135238D01*
X170932380Y-80040000D01*
X170932380Y-81373333D02*
X170932380Y-80897142D01*
X169932380Y-80897142D01*
X170837142Y-82278095D02*
X170884761Y-82230476D01*
X170932380Y-82087619D01*
X170932380Y-81992380D01*
X170884761Y-81849523D01*
X170789523Y-81754285D01*
X170694285Y-81706666D01*
X170503809Y-81659047D01*
X170360952Y-81659047D01*
X170170476Y-81706666D01*
X170075238Y-81754285D01*
X169980000Y-81849523D01*
X169932380Y-81992380D01*
X169932380Y-82087619D01*
X169980000Y-82230476D01*
X170027619Y-82278095D01*
X169932380Y-82992380D02*
X170646666Y-82992380D01*
X170789523Y-82944761D01*
X170884761Y-82849523D01*
X170932380Y-82706666D01*
X170932380Y-82611428D01*
X170932380Y-83944761D02*
X170932380Y-83468571D01*
X169932380Y-83468571D01*
X170837142Y-84849523D02*
X170884761Y-84801904D01*
X170932380Y-84659047D01*
X170932380Y-84563809D01*
X170884761Y-84420952D01*
X170789523Y-84325714D01*
X170694285Y-84278095D01*
X170503809Y-84230476D01*
X170360952Y-84230476D01*
X170170476Y-84278095D01*
X170075238Y-84325714D01*
X169980000Y-84420952D01*
X169932380Y-84563809D01*
X169932380Y-84659047D01*
X169980000Y-84801904D01*
X170027619Y-84849523D01*
X169932380Y-85563809D02*
X170646666Y-85563809D01*
X170789523Y-85516190D01*
X170884761Y-85420952D01*
X170932380Y-85278095D01*
X170932380Y-85182857D01*
X170932380Y-86516190D02*
X170932380Y-86040000D01*
X169932380Y-86040000D01*
X170837142Y-87420952D02*
X170884761Y-87373333D01*
X170932380Y-87230476D01*
X170932380Y-87135238D01*
X170884761Y-86992380D01*
X170789523Y-86897142D01*
X170694285Y-86849523D01*
X170503809Y-86801904D01*
X170360952Y-86801904D01*
X170170476Y-86849523D01*
X170075238Y-86897142D01*
X169980000Y-86992380D01*
X169932380Y-87135238D01*
X169932380Y-87230476D01*
X169980000Y-87373333D01*
X170027619Y-87420952D01*
X169932380Y-88135238D02*
X170646666Y-88135238D01*
X170789523Y-88087619D01*
X170884761Y-87992380D01*
X170932380Y-87849523D01*
X170932380Y-87754285D01*
X170932380Y-89087619D02*
X170932380Y-88611428D01*
X169932380Y-88611428D01*
X170837142Y-89992380D02*
X170884761Y-89944761D01*
X170932380Y-89801904D01*
X170932380Y-89706666D01*
X170884761Y-89563809D01*
X170789523Y-89468571D01*
X170694285Y-89420952D01*
X170503809Y-89373333D01*
X170360952Y-89373333D01*
X170170476Y-89420952D01*
X170075238Y-89468571D01*
X169980000Y-89563809D01*
X169932380Y-89706666D01*
X169932380Y-89801904D01*
X169980000Y-89944761D01*
X170027619Y-89992380D01*
D11*
X121480000Y-22040000D02*
X121480000Y-122040000D01*
M02*
